# xmcd
#
# Track frame offsets:
#	150
#	20288
#	39359
#	60890
#	76511
#	103772
#	124095
#	142396
#	164359
#	184382
#	201775
#
# Disc length: 2902 seconds
#
# Revision: 49349663
# Processed by: cddbd v1.5.2PL0 Copyright (c) Steve Scherf et al.
# Submitted via: EZCDAudioConverter 8.0.2.1
#
DISCID=8d0b540b
DTITLE=Hoàng Thanh - Giấc Mơ Xưa
DYEAR=2005
DGENRE=World Pop
TTITLE0=Thoáng qua một cuộc tình
TTITLE1=Cánh buồm đỏ thắm
TTITLE2=Tình yêu.com
TTITLE3=Giấc Mơ Xưa
TTITLE4=Khúc mưa buồn
TTITLE5=Phép lạ
TTITLE6=Cà phê một mình
TTITLE7=Tình theo ngọn gió
TTITLE8=Đừng khóc
TTITLE9=Chú Cuội
TTITLE10=Quán khuya
EXTD=
EXTT0=
EXTT1=
EXTT2=
EXTT3=
EXTT4=
EXTT5=
EXTT6=
EXTT7=
EXTT8=
EXTT9=
EXTT10=
PLAYORDER=
